<svg version="1.1" id="Layer_1" xmlns="http://www.w3.org/2000/svg" xmlns:xlink="http://www.w3.org/1999/xlink" x="0px" y="0px"
	 width="100%" viewBox="0 0 512 512" enable-background="new 0 0 512 512" xml:space="preserve">
<path fill="#000000" opacity="1.000000" stroke="none" 
	d="
M275.000000,513.000000 
	C183.355576,513.000000 92.211151,513.000000 1.033362,513.000000 
	C1.033362,342.397217 1.033362,171.794418 1.033362,1.095816 
	C171.561111,1.095816 342.122284,1.095816 512.841736,1.095816 
	C512.841736,171.666550 512.841736,342.333252 512.841736,513.000000 
	C433.794403,513.000000 354.647186,513.000000 275.000000,513.000000 
M120.308060,99.033760 
	C119.058907,99.963142 117.581718,100.698647 116.598969,101.854530 
	C111.591820,107.743797 106.650139,113.691612 101.807076,119.716629 
	C97.451332,125.135406 93.252922,130.680649 88.300049,137.051254 
	C94.438843,137.051254 99.487114,137.051254 105.001099,137.051254 
	C105.001099,139.394684 105.001068,141.183014 105.001106,142.971344 
	C105.001289,152.781662 105.025894,162.592087 104.984886,172.402222 
	C104.974342,174.924423 105.034042,177.068466 108.518394,177.026016 
	C116.830971,176.924774 125.150932,177.138367 133.453613,176.834427 
	C134.673843,176.789764 136.706741,174.698715 136.829758,173.408279 
	C137.221756,169.296539 136.890091,165.115845 136.970901,160.037613 
	C136.970901,152.474136 136.970901,144.910660 136.970901,136.885742 
	C142.649536,136.885742 147.686417,136.885742 152.750000,136.885742 
	C152.750000,136.095978 152.883896,135.675156 152.730820,135.483337 
	C144.396118,125.038208 136.122559,114.541862 127.609886,104.243217 
	C125.884964,102.156387 123.247810,100.823593 120.308060,99.033760 
M408.970886,160.037659 
	C408.970886,152.474182 408.970886,144.910721 408.970886,136.885803 
	C414.649475,136.885803 419.686340,136.885803 424.750000,136.885803 
	C424.750000,136.096054 424.883881,135.675247 424.730835,135.483429 
	C416.396179,125.038292 408.122589,114.541954 399.609985,104.243301 
	C397.885040,102.156464 395.247955,100.823608 392.308197,99.033745 
	C391.059021,99.963104 389.581818,100.698586 388.599060,101.854469 
	C383.591919,107.743736 378.650177,113.691536 373.807129,119.716537 
	C369.451385,125.135338 365.252960,130.680588 360.300079,137.051193 
	C366.436981,137.051193 371.484253,137.051193 377.001068,137.051193 
	C377.001068,139.385666 377.001038,141.178467 377.001068,142.971283 
	C377.001282,152.781601 377.025879,162.592041 376.984863,172.402176 
	C376.974304,174.924332 377.033966,177.068436 380.518341,177.026016 
	C388.830933,176.924774 397.150909,177.138367 405.453583,176.834412 
	C406.673828,176.789749 408.706757,174.698715 408.829803,173.408310 
	C409.221771,169.296570 408.890106,165.115875 408.970886,160.037659 
M183.307922,183.166626 
	C180.110214,186.704468 176.609970,190.016022 173.766022,193.818451 
	C159.770508,212.530701 151.947617,233.322296 153.024094,257.945892 
	C153.690506,265.293488 153.591095,272.810394 155.170807,279.956085 
	C159.446625,299.297394 168.024139,316.484314 183.162827,330.689758 
	C186.699509,333.886078 190.006912,337.389954 193.811661,340.226746 
	C212.536896,354.187958 233.330093,362.015259 257.942841,360.976166 
	C265.288666,360.309814 272.805542,360.414062 279.947357,358.828674 
	C299.280609,354.537018 316.488159,345.992859 330.688263,330.839050 
	C333.887085,327.299377 337.405060,323.996033 340.230713,320.180054 
	C354.112793,301.432709 362.140381,280.706604 360.975769,256.054199 
	C360.310608,248.711960 360.413269,241.199738 358.832520,234.060226 
	C354.549652,214.716537 345.975983,197.520645 330.836090,183.309143 
	C319.102539,171.152756 305.318756,162.359039 288.990173,156.871033 
	C288.939514,147.567917 288.888855,138.264816 288.970886,128.037506 
	C288.970886,117.791718 288.970886,107.545929 288.970886,96.814232 
	C297.373901,96.814232 305.077026,96.814232 313.765198,96.814232 
	C309.686615,92.156593 306.300720,88.243210 302.863525,84.375420 
	C297.184204,77.984612 291.399231,71.686249 285.790619,65.234344 
	C277.816650,56.061447 270.027832,46.726681 261.981262,37.618877 
	C260.852142,36.340786 258.710419,35.957298 256.297424,35.031765 
	C253.929535,37.096004 251.314178,38.938564 249.234055,41.260601 
	C236.126480,55.892628 223.125870,70.620621 210.118408,85.342079 
	C207.008621,88.861633 204.006882,92.476639 200.091568,97.058754 
	C209.081039,97.058754 216.910828,97.058754 225.084213,97.058754 
	C225.084213,117.782166 225.084213,137.753708 224.314240,157.966568 
	C208.687744,162.772919 195.006546,170.730804 183.307922,183.166626 
M464.000000,257.049866 
	C439.840729,257.033234 415.681488,257.013397 391.522217,257.001221 
	C377.880768,256.994354 377.886688,257.000885 375.835632,270.565857 
	C375.662231,271.712646 375.257324,272.825256 375.095795,273.972870 
	C370.499207,306.625854 354.542267,332.884674 328.515778,352.464508 
	C298.510101,375.037903 264.489685,381.677368 228.017502,372.691437 
	C192.918961,364.043915 167.356232,342.704559 150.537125,310.924774 
	C143.073502,296.822296 138.807922,281.686859 137.924591,265.652435 
	C137.604065,259.834381 134.669144,257.037170 129.049057,257.032227 
	C102.391159,257.008759 75.733192,257.075104 48.143513,257.052521 
	C45.977646,257.036407 43.811172,256.979431 41.646030,257.011810 
	C34.987961,257.111328 33.082787,259.005005 33.015553,265.705170 
	C32.958706,271.370178 32.979980,277.036346 33.005894,282.701813 
	C33.042034,290.602936 37.006359,296.236603 44.777153,297.842316 
	C51.077847,299.144257 57.592239,299.599823 64.038216,299.964081 
	C72.441681,300.438934 77.652267,304.019836 80.777718,311.821442 
	C85.167961,322.780151 89.585228,333.732269 94.262268,344.570099 
	C96.698647,350.215790 96.273804,355.262299 92.444466,359.969910 
	C88.881508,364.350006 85.326584,368.753906 81.494591,372.894196 
	C73.977348,381.016296 73.918121,391.441315 81.621078,399.164978 
	C92.799805,410.373718 103.986458,421.574707 115.205803,432.742767 
	C122.186966,439.691986 132.501389,439.994873 140.011749,433.500183 
	C143.279434,430.674408 146.487946,427.778839 149.683075,424.870758 
	C158.190277,417.127838 162.629120,416.767090 173.061981,421.463440 
	C182.756821,425.827545 192.745529,429.553406 202.678024,433.369812 
	C209.145615,435.854889 213.555191,441.514252 213.964417,448.406952 
	C214.279251,453.709473 214.520416,459.021942 215.044540,464.305206 
	C215.937637,473.307800 220.833359,481.590393 233.241165,481.136536 
	C248.883957,480.564392 264.563568,480.998199 280.227295,480.998596 
	C292.579590,480.998901 298.738800,474.805298 299.063171,462.344543 
	C299.196991,457.204895 299.482422,452.037964 300.192719,446.952393 
	C301.087738,440.543884 304.790833,436.057587 310.839478,433.591858 
	C321.924255,429.073029 333.090881,424.741150 344.055542,419.947418 
	C349.856476,417.411255 355.085846,417.608032 359.979919,421.453674 
	C364.415283,424.938843 368.705994,428.628143 372.865540,432.440125 
	C381.989441,440.801605 393.432587,438.914001 399.978424,431.810303 
	C410.471161,420.423370 421.786804,409.796021 432.721558,398.814636 
	C439.688965,391.817505 440.014709,381.568268 433.514954,374.017029 
	C430.588257,370.616821 427.528137,367.331787 424.553589,363.972351 
	C417.025146,355.469727 416.776489,351.344025 421.450500,340.966949 
	C425.817230,331.272003 429.545593,321.282867 433.361664,311.348938 
	C435.846771,304.879700 441.505096,300.451080 448.381195,300.037842 
	C453.683990,299.719116 458.996948,299.479126 464.280762,298.955383 
	C473.319153,298.059570 482.091888,293.150238 481.031708,280.784637 
	C480.804779,278.137909 480.998108,275.455139 480.998108,272.788971 
	C480.998077,256.597900 480.998077,256.597900 464.000000,257.049866 
z"/>
<path fill="#252E3A" opacity="1.000000" stroke="none" 
	d="
M49.075253,257.109436 
	C75.733192,257.075104 102.391159,257.008759 129.049057,257.032227 
	C134.669144,257.037170 137.604065,259.834381 137.924591,265.652435 
	C138.807922,281.686859 143.073502,296.822296 150.537125,310.924774 
	C167.356232,342.704559 192.918961,364.043915 228.017502,372.691437 
	C264.489685,381.677368 298.510101,375.037903 328.515778,352.464508 
	C354.542267,332.884674 370.499207,306.625854 375.095795,273.972870 
	C375.257324,272.825256 375.662231,271.712646 375.835632,270.565857 
	C377.886688,257.000885 377.880768,256.994354 391.522217,257.001221 
	C415.681488,257.013397 439.840729,257.033234 464.482849,257.536530 
	C464.976410,264.022980 464.692322,270.042358 465.089935,276.016388 
	C465.414642,280.894470 463.150055,282.608246 458.811920,282.893860 
	C454.168182,283.199554 449.518768,283.486481 444.892487,283.976898 
	C432.358124,285.305634 423.553925,291.835815 418.683167,303.434296 
	C414.045319,314.478210 409.964569,325.767151 405.026062,336.670807 
	C399.546265,348.769653 401.196869,362.619293 410.061859,372.567841 
	C413.049316,375.920410 415.913971,379.382080 418.856232,382.775269 
	C421.086548,385.347382 421.080872,387.526489 418.474274,390.073273 
	C408.938202,399.390503 399.499664,408.811279 390.194000,418.358459 
	C387.289886,421.337921 384.874725,421.083862 382.071045,418.516632 
	C378.881470,415.596039 375.610504,412.764313 372.374054,409.894958 
	C362.535583,401.172363 348.799835,399.518524 336.930939,404.913513 
	C326.945648,409.452301 316.739777,413.556915 306.449036,417.359894 
	C293.096130,422.294525 285.317871,431.358124 283.922577,445.637939 
	C283.470093,450.268738 283.183899,454.915558 282.774506,459.550903 
	C282.453857,463.181091 280.994385,465.156250 276.772675,465.081146 
	C263.610382,464.846832 250.438736,464.850067 237.276291,465.080170 
	C233.098083,465.153198 231.547485,463.265961 231.231750,459.600128 
	C230.803833,454.631714 230.571152,449.642548 230.005112,444.690796 
	C228.601364,432.411194 222.249161,423.644897 210.843491,418.787354 
	C199.983505,414.162201 188.992737,409.843872 178.138397,405.205902 
	C165.035461,399.607117 152.841980,400.490753 141.711594,409.840881 
	C138.400909,412.622101 135.193985,415.530151 132.002350,418.448822 
	C129.245651,420.969788 126.830681,421.456329 123.877937,418.427826 
	C114.570938,408.881927 105.141418,399.451752 95.596107,390.144196 
	C92.585548,387.208588 92.990562,384.794373 95.529060,382.020020 
	C98.223679,379.075012 100.790298,376.013245 103.464828,373.049408 
	C113.058289,362.418091 114.638947,348.993744 108.582779,335.897339 
	C104.190353,326.398712 100.376289,316.609772 96.747124,306.786682 
	C91.849968,293.531555 83.032509,285.414703 68.696404,283.955627 
	C63.902168,283.467682 59.089344,283.164215 54.286877,282.754608 
	C50.532085,282.434387 48.743019,280.687317 48.931999,276.604614 
	C49.232254,270.117889 49.052158,263.608978 49.075253,257.109436 
z"/>
<path fill="#141B22" opacity="1.000000" stroke="none" 
	d="
M48.609383,257.080994 
	C49.052158,263.608978 49.232254,270.117889 48.931999,276.604614 
	C48.743019,280.687317 50.532085,282.434387 54.286877,282.754608 
	C59.089344,283.164215 63.902168,283.467682 68.696404,283.955627 
	C83.032509,285.414703 91.849968,293.531555 96.747124,306.786682 
	C100.376289,316.609772 104.190353,326.398712 108.582779,335.897339 
	C114.638947,348.993744 113.058289,362.418091 103.464828,373.049408 
	C100.790298,376.013245 98.223679,379.075012 95.529060,382.020020 
	C92.990562,384.794373 92.585548,387.208588 95.596107,390.144196 
	C105.141418,399.451752 114.570938,408.881927 123.877937,418.427826 
	C126.830681,421.456329 129.245651,420.969788 132.002350,418.448822 
	C135.193985,415.530151 138.400909,412.622101 141.711594,409.840881 
	C152.841980,400.490753 165.035461,399.607117 178.138397,405.205902 
	C188.992737,409.843872 199.983505,414.162201 210.843491,418.787354 
	C222.249161,423.644897 228.601364,432.411194 230.005112,444.690796 
	C230.571152,449.642548 230.803833,454.631714 231.231750,459.600128 
	C231.547485,463.265961 233.098083,465.153198 237.276291,465.080170 
	C250.438736,464.850067 263.610382,464.846832 276.772675,465.081146 
	C280.994385,465.156250 282.453857,463.181091 282.774506,459.550903 
	C283.183899,454.915558 283.470093,450.268738 283.922577,445.637939 
	C285.317871,431.358124 293.096130,422.294525 306.449036,417.359894 
	C316.739777,413.556915 326.945648,409.452301 336.930939,404.913513 
	C348.799835,399.518524 362.535583,401.172363 372.374054,409.894958 
	C375.610504,412.764313 378.881470,415.596039 382.071045,418.516632 
	C384.874725,421.083862 387.289886,421.337921 390.194000,418.358459 
	C399.499664,408.811279 408.938202,399.390503 418.474274,390.073273 
	C421.080872,387.526489 421.086548,385.347382 418.856232,382.775269 
	C415.913971,379.382080 413.049316,375.920410 410.061859,372.567841 
	C401.196869,362.619293 399.546265,348.769653 405.026062,336.670807 
	C409.964569,325.767151 414.045319,314.478210 418.683167,303.434296 
	C423.553925,291.835815 432.358124,285.305634 444.892487,283.976898 
	C449.518768,283.486481 454.168182,283.199554 458.811920,282.893860 
	C463.150055,282.608246 465.414642,280.894470 465.089935,276.016388 
	C464.692322,270.042358 464.976410,264.022980 464.946167,257.564880 
	C480.998077,256.597900 480.998077,256.597900 480.998108,272.788971 
	C480.998108,275.455139 480.804779,278.137909 481.031708,280.784637 
	C482.091888,293.150238 473.319153,298.059570 464.280762,298.955383 
	C458.996948,299.479126 453.683990,299.719116 448.381195,300.037842 
	C441.505096,300.451080 435.846771,304.879700 433.361664,311.348938 
	C429.545593,321.282867 425.817230,331.272003 421.450500,340.966949 
	C416.776489,351.344025 417.025146,355.469727 424.553589,363.972351 
	C427.528137,367.331787 430.588257,370.616821 433.514954,374.017029 
	C440.014709,381.568268 439.688965,391.817505 432.721558,398.814636 
	C421.786804,409.796021 410.471161,420.423370 399.978424,431.810303 
	C393.432587,438.914001 381.989441,440.801605 372.865540,432.440125 
	C368.705994,428.628143 364.415283,424.938843 359.979919,421.453674 
	C355.085846,417.608032 349.856476,417.411255 344.055542,419.947418 
	C333.090881,424.741150 321.924255,429.073029 310.839478,433.591858 
	C304.790833,436.057587 301.087738,440.543884 300.192719,446.952393 
	C299.482422,452.037964 299.196991,457.204895 299.063171,462.344543 
	C298.738800,474.805298 292.579590,480.998901 280.227295,480.998596 
	C264.563568,480.998199 248.883957,480.564392 233.241165,481.136536 
	C220.833359,481.590393 215.937637,473.307800 215.044540,464.305206 
	C214.520416,459.021942 214.279251,453.709473 213.964417,448.406952 
	C213.555191,441.514252 209.145615,435.854889 202.678024,433.369812 
	C192.745529,429.553406 182.756821,425.827545 173.061981,421.463440 
	C162.629120,416.767090 158.190277,417.127838 149.683075,424.870758 
	C146.487946,427.778839 143.279434,430.674408 140.011749,433.500183 
	C132.501389,439.994873 122.186966,439.691986 115.205803,432.742767 
	C103.986458,421.574707 92.799805,410.373718 81.621078,399.164978 
	C73.918121,391.441315 73.977348,381.016296 81.494591,372.894196 
	C85.326584,368.753906 88.881508,364.350006 92.444466,359.969910 
	C96.273804,355.262299 96.698647,350.215790 94.262268,344.570099 
	C89.585228,333.732269 85.167961,322.780151 80.777718,311.821442 
	C77.652267,304.019836 72.441681,300.438934 64.038216,299.964081 
	C57.592239,299.599823 51.077847,299.144257 44.777153,297.842316 
	C37.006359,296.236603 33.042034,290.602936 33.005894,282.701813 
	C32.979980,277.036346 32.958706,271.370178 33.015553,265.705170 
	C33.082787,259.005005 34.987961,257.111328 41.646030,257.011810 
	C43.811172,256.979431 45.977646,257.036407 48.609383,257.080994 
z"/>
<path fill="#36B247" opacity="1.000000" stroke="none" 
	d="
M225.084213,157.725250 
	C225.084213,137.753708 225.084213,117.782166 225.084213,97.058754 
	C216.910828,97.058754 209.081039,97.058754 200.091568,97.058754 
	C204.006882,92.476639 207.008621,88.861633 210.118408,85.342079 
	C223.125870,70.620621 236.126480,55.892628 249.234055,41.260601 
	C251.314178,38.938564 253.929535,37.096004 256.658417,35.554016 
	C257.014343,61.383301 256.962402,86.690453 257.026794,111.997307 
	C257.053406,122.457573 263.457275,128.835678 273.854187,128.981247 
	C278.847778,129.051178 283.843475,128.972885 288.838196,128.961700 
	C288.888855,138.264816 288.939514,147.567917 288.585754,157.384705 
	C277.783936,156.321594 267.386536,154.744781 256.544556,153.106323 
	C245.761353,154.604874 235.422775,156.165054 225.084213,157.725250 
z"/>
<path fill="#48D660" opacity="1.000000" stroke="none" 
	d="
M288.904541,128.499603 
	C283.843475,128.972885 278.847778,129.051178 273.854187,128.981247 
	C263.457275,128.835678 257.053406,122.457573 257.026794,111.997307 
	C256.962402,86.690453 257.014343,61.383301 257.028381,35.617992 
	C258.710419,35.957298 260.852142,36.340786 261.981262,37.618877 
	C270.027832,46.726681 277.816650,56.061447 285.790619,65.234344 
	C291.399231,71.686249 297.184204,77.984612 302.863525,84.375420 
	C306.300720,88.243210 309.686615,92.156593 313.765198,96.814232 
	C305.077026,96.814232 297.373901,96.814232 288.970886,96.814232 
	C288.970886,107.545929 288.970886,117.791718 288.904541,128.499603 
z"/>
<path fill="#EA9D29" opacity="1.000000" stroke="none" 
	d="
M331.105530,183.922729 
	C345.975983,197.520645 354.549652,214.716537 358.832520,234.060226 
	C360.413269,241.199738 360.310608,248.711960 360.447449,256.520081 
	C349.646118,257.008026 339.373169,257.030090 329.072327,256.601379 
	C327.888153,249.163513 327.251190,242.040115 325.460358,235.219666 
	C322.364166,223.427811 315.436584,213.740631 307.374756,204.982910 
	C310.987244,201.944641 314.257690,198.976944 317.546478,196.029694 
	C322.058868,191.985901 326.585175,187.957642 331.105530,183.922729 
z"/>
<path fill="#EA9D29" opacity="1.000000" stroke="none" 
	d="
M330.074738,331.110443 
	C316.488159,345.992859 299.280609,354.537018 279.947357,358.828674 
	C272.805542,360.414062 265.288666,360.309814 257.478149,360.447754 
	C257.007050,349.632172 257.000641,339.344940 257.449524,329.040894 
	C276.016632,328.768036 291.769379,322.550720 305.199188,310.387848 
	C306.271881,309.416382 307.635132,308.765808 309.046387,308.252747 
	C313.531219,312.928009 317.913879,317.241150 322.106354,321.731842 
	C324.902740,324.727112 327.428101,327.975372 330.074738,331.110443 
z"/>
<path fill="#EA9D29" opacity="1.000000" stroke="none" 
	d="
M182.893341,330.075470 
	C168.024139,316.484314 159.446625,299.297394 155.170807,279.956085 
	C153.591095,272.810394 153.690506,265.293488 153.552490,257.480042 
	C164.368027,257.007568 174.655167,257.000916 184.959152,257.449585 
	C185.245270,276.005646 191.306046,291.815918 203.594772,305.194855 
	C204.573334,306.260254 205.223099,307.627655 205.739960,309.039185 
	C203.187271,311.407288 200.962784,313.637268 198.644638,315.765198 
	C193.418823,320.562134 188.146637,325.308533 182.893341,330.075470 
z"/>
<path fill="#D38013" opacity="1.000000" stroke="none" 
	d="
M184.942307,256.994263 
	C174.655167,257.000916 164.368027,257.007568 153.622772,257.019714 
	C151.947617,233.322296 159.770508,212.530701 173.766022,193.818451 
	C176.609970,190.016022 180.110214,186.704468 183.784775,183.329681 
	C184.559952,183.889740 184.818863,184.325089 185.162415,184.678055 
	C192.078110,191.783585 199.003540,198.879623 205.663193,206.174683 
	C192.137131,220.642181 184.589813,237.222046 184.942307,256.994263 
z"/>
<path fill="#D38013" opacity="1.000000" stroke="none" 
	d="
M330.381500,330.974731 
	C327.428101,327.975372 324.902740,324.727112 322.106354,321.731842 
	C317.913879,317.241150 313.531219,312.928009 309.237305,307.979431 
	C310.493408,305.594299 311.741638,303.769135 313.257538,301.748962 
	C323.898376,288.533478 328.798767,273.597626 329.100189,257.052185 
	C339.373169,257.030090 349.646118,257.008026 360.377228,256.980469 
	C362.140381,280.706604 354.112793,301.432709 340.230713,320.180054 
	C337.405060,323.996033 333.887085,327.299377 330.381500,330.974731 
z"/>
<path fill="#EA9D29" opacity="1.000000" stroke="none" 
	d="
M205.927017,205.977570 
	C199.003540,198.879623 192.078110,191.783585 185.162415,184.678055 
	C184.818863,184.325089 184.559952,183.889740 184.092545,183.195312 
	C195.006546,170.730804 208.687744,162.772919 224.699219,157.845917 
	C235.422775,156.165054 245.761353,154.604874 256.546692,153.563843 
	C257.012848,164.355484 257.032227,174.627960 256.601135,184.927704 
	C252.206879,185.331894 248.188950,185.351807 244.333191,186.152573 
	C232.741821,188.559906 221.633881,192.155563 212.827957,201.100800 
	C212.361038,201.454651 212.145584,201.706009 211.991241,201.989868 
	C212.006317,201.982910 211.979736,201.962769 211.652130,202.033112 
	C209.525375,203.394821 207.726196,204.686203 205.927017,205.977570 
z"/>
<path fill="#D38013" opacity="1.000000" stroke="none" 
	d="
M183.028076,330.382629 
	C188.146637,325.308533 193.418823,320.562134 198.644638,315.765198 
	C200.962784,313.637268 203.187271,311.407288 206.020493,309.236633 
	C221.130722,321.599731 237.383286,329.601898 256.994202,329.057739 
	C257.000641,339.344940 257.007050,349.632172 257.018860,360.377502 
	C233.330093,362.015259 212.536896,354.187958 193.811661,340.226746 
	C190.006912,337.389954 186.699509,333.886078 183.028076,330.382629 
z"/>
<path fill="#D38013" opacity="1.000000" stroke="none" 
	d="
M257.051605,184.900421 
	C257.032227,174.627960 257.012848,164.355484 256.991333,153.625488 
	C267.386536,154.744781 277.783936,156.321594 288.573151,157.839447 
	C305.318756,162.359039 319.102539,171.152756 330.970825,183.615936 
	C326.585175,187.957642 322.058868,191.985901 317.546478,196.029694 
	C314.257690,198.976944 310.987244,201.944641 307.100067,204.781281 
	C292.609161,191.573410 275.988373,185.339432 257.051605,184.900421 
z"/>
<path fill="#36B247" opacity="1.000000" stroke="none" 
	d="
M408.837982,160.961807 
	C408.890106,165.115875 409.221771,169.296570 408.829803,173.408310 
	C408.706757,174.698715 406.673828,176.789749 405.453583,176.834412 
	C397.150909,177.138367 388.830933,176.924774 380.518341,177.026016 
	C377.033966,177.068436 376.974304,174.924332 376.984863,172.402176 
	C377.025879,162.592041 377.001282,152.781601 377.001068,142.971283 
	C377.001038,141.178467 377.001068,139.385666 377.001068,137.051193 
	C371.484253,137.051193 366.436981,137.051193 360.300079,137.051193 
	C365.252960,130.680588 369.451385,125.135338 373.807129,119.716537 
	C378.650177,113.691536 383.591919,107.743736 388.599060,101.854469 
	C389.581818,100.698586 391.059021,99.963104 392.660400,99.547775 
	C393.008789,115.181023 393.003510,130.300232 393.001648,145.419449 
	C392.999786,160.386688 393.756470,161.127853 408.837982,160.961807 
z"/>
<path fill="#36B247" opacity="1.000000" stroke="none" 
	d="
M136.837982,160.961777 
	C136.890091,165.115845 137.221756,169.296539 136.829758,173.408279 
	C136.706741,174.698715 134.673843,176.789764 133.453613,176.834427 
	C125.150932,177.138367 116.830971,176.924774 108.518394,177.026016 
	C105.034042,177.068466 104.974342,174.924423 104.984886,172.402222 
	C105.025894,162.592087 105.001289,152.781662 105.001106,142.971344 
	C105.001068,141.183014 105.001099,139.394684 105.001099,137.051254 
	C99.487114,137.051254 94.438843,137.051254 88.300049,137.051254 
	C93.252922,130.680649 97.451332,125.135406 101.807076,119.716629 
	C106.650139,113.691612 111.591820,107.743797 116.598969,101.854530 
	C117.581718,100.698647 119.058907,99.963142 120.660294,99.547791 
	C121.008728,115.181038 121.003365,130.300247 121.001549,145.419464 
	C120.999756,160.386841 121.756439,161.127899 136.837982,160.961777 
z"/>
<path fill="#48D660" opacity="1.000000" stroke="none" 
	d="
M136.904449,160.499695 
	C121.756439,161.127899 120.999756,160.386841 121.001549,145.419464 
	C121.003365,130.300247 121.008728,115.181038 121.021866,99.602493 
	C123.247810,100.823593 125.884964,102.156387 127.609886,104.243217 
	C136.122559,114.541862 144.396118,125.038208 152.730820,135.483337 
	C152.883896,135.675156 152.750000,136.095978 152.750000,136.885742 
	C147.686417,136.885742 142.649536,136.885742 136.970901,136.885742 
	C136.970901,144.910660 136.970901,152.474136 136.904449,160.499695 
z"/>
<path fill="#48D660" opacity="1.000000" stroke="none" 
	d="
M408.904419,160.499725 
	C393.756470,161.127853 392.999786,160.386688 393.001648,145.419449 
	C393.003510,130.300232 393.008789,115.181023 393.021973,99.602478 
	C395.247955,100.823608 397.885040,102.156464 399.609985,104.243301 
	C408.122589,114.541954 416.396179,125.038292 424.730835,135.483429 
	C424.883881,135.675247 424.750000,136.096054 424.750000,136.885803 
	C419.686340,136.885803 414.649475,136.885803 408.970886,136.885803 
	C408.970886,144.910721 408.970886,152.474182 408.904419,160.499725 
z"/>
<path fill="#F1C710" opacity="1.000000" stroke="none" 
	d="
M256.601135,184.927704 
	C275.988373,185.339432 292.609161,191.573410 306.766174,204.860977 
	C315.436584,213.740631 322.364166,223.427811 325.460358,235.219666 
	C327.251190,242.040115 327.888153,249.163513 329.072327,256.601379 
	C328.798767,273.597626 323.898376,288.533478 312.891846,301.783875 
	C310.758850,302.694641 309.218781,303.299103 307.766113,304.068542 
	C297.468170,309.523041 286.520905,312.745026 274.865265,312.952881 
	C251.629501,313.367310 232.273682,304.526215 217.519424,286.767181 
	C204.274734,270.825195 199.008896,252.236862 201.742188,231.417694 
	C203.134735,220.810745 207.218964,211.310593 211.979736,201.962769 
	C211.979736,201.962769 212.006317,201.982910 212.189163,201.840424 
	C212.620651,201.476791 212.841125,201.230438 213.033417,200.958862 
	C221.633881,192.155563 232.741821,188.559906 244.333191,186.152573 
	C248.188950,185.351807 252.206879,185.331894 256.601135,184.927704 
M246.730896,225.983871 
	C238.498550,229.142380 233.513824,234.982956 233.096634,243.880981 
	C232.705719,252.218369 236.098892,259.234009 243.868332,262.555206 
	C248.404297,264.494141 253.852829,264.393402 258.918793,264.959686 
	C261.723846,265.273254 264.667480,265.456238 264.668427,268.999908 
	C264.669373,272.546570 261.746521,272.974609 258.912994,272.985229 
	C253.253418,273.006439 247.569763,272.703003 241.945419,273.151978 
	C239.563675,273.342133 236.219925,274.503082 235.258224,276.277100 
	C233.955902,278.679413 233.386932,282.741760 234.610352,284.894562 
	C235.825668,287.033081 239.654602,288.773224 242.330673,288.763916 
	C247.582825,288.745697 249.426437,290.397308 249.181290,295.674957 
	C249.073364,297.998749 250.230820,301.368591 251.972229,302.537201 
	C254.077484,303.949951 257.560303,304.265533 260.176910,303.731873 
	C263.906952,302.971161 265.233337,299.620911 264.957458,295.959076 
	C264.619690,291.475433 265.403564,288.515289 270.394135,286.397186 
	C277.968079,283.182678 281.968231,274.128082 280.874939,266.034485 
	C279.767456,257.835876 273.560791,251.193604 264.958313,249.568130 
	C261.565308,248.927002 257.910858,249.578766 254.565018,248.813278 
	C252.595749,248.362732 250.998627,246.285553 249.234131,244.939987 
	C251.038940,243.633331 252.759674,241.366318 254.664291,241.199570 
	C260.446930,240.693314 266.302460,241.085083 272.126160,240.962967 
	C277.240875,240.855728 280.627869,237.686996 280.756348,233.169098 
	C280.888214,228.532974 277.339630,225.234222 271.978333,225.009048 
	C265.248901,224.726425 265.248871,224.726425 264.992188,218.143585 
	C264.781616,212.743500 261.585724,209.206390 256.945770,209.237976 
	C252.282684,209.269730 249.318527,212.789810 248.947891,218.234924 
	C248.777298,220.741165 247.971542,223.204147 246.730896,225.983871 
z"/>
<path fill="#D3AC07" opacity="1.000000" stroke="none" 
	d="
M211.652130,202.033112 
	C207.218964,211.310593 203.134735,220.810745 201.742188,231.417694 
	C199.008896,252.236862 204.274734,270.825195 217.519424,286.767181 
	C232.273682,304.526215 251.629501,313.367310 274.865265,312.952881 
	C286.520905,312.745026 297.468170,309.523041 307.766113,304.068542 
	C309.218781,303.299103 310.758850,302.694641 312.624146,301.978882 
	C311.741638,303.769135 310.493408,305.594299 309.054260,307.692810 
	C307.635132,308.765808 306.271881,309.416382 305.199188,310.387848 
	C291.769379,322.550720 276.016632,328.768036 257.449554,329.040894 
	C237.383286,329.601898 221.130722,321.599731 206.306183,309.052155 
	C205.223099,307.627655 204.573334,306.260254 203.594772,305.194855 
	C191.306046,291.815918 185.245270,276.005646 184.959152,257.449615 
	C184.589813,237.222046 192.137131,220.642181 205.663193,206.174683 
	C207.726196,204.686203 209.525375,203.394821 211.652130,202.033112 
z"/>
<path fill="#D3AC07" opacity="1.000000" stroke="none" 
	d="
M212.827957,201.100800 
	C212.841125,201.230438 212.620651,201.476791 212.174072,201.847366 
	C212.145584,201.706009 212.361038,201.454651 212.827957,201.100800 
z"/>
<path fill="#EA9E29" opacity="1.000000" stroke="none" 
	d="
M247.092346,225.835312 
	C247.971542,223.204147 248.777298,220.741165 248.947891,218.234924 
	C249.318527,212.789810 252.282684,209.269730 256.945770,209.237976 
	C261.585724,209.206390 264.781616,212.743500 264.992188,218.143585 
	C265.248871,224.726425 265.248901,224.726425 271.978333,225.009048 
	C277.339630,225.234222 280.888214,228.532974 280.756348,233.169098 
	C280.627869,237.686996 277.240875,240.855728 272.126160,240.962967 
	C266.302460,241.085083 260.446930,240.693314 254.664291,241.199570 
	C252.759674,241.366318 251.038940,243.633331 249.234131,244.939987 
	C250.998627,246.285553 252.595749,248.362732 254.565018,248.813278 
	C257.910858,249.578766 261.565308,248.927002 264.958313,249.568130 
	C273.560791,251.193604 279.767456,257.835876 280.874939,266.034485 
	C281.968231,274.128082 277.968079,283.182678 270.394135,286.397186 
	C265.403564,288.515289 264.619690,291.475433 264.957458,295.959076 
	C265.233337,299.620911 263.906952,302.971161 260.176910,303.731873 
	C257.560303,304.265533 254.077484,303.949951 251.972229,302.537201 
	C250.230820,301.368591 249.073364,297.998749 249.181290,295.674957 
	C249.426437,290.397308 247.582825,288.745697 242.330673,288.763916 
	C239.654602,288.773224 235.825668,287.033081 234.610352,284.894562 
	C233.386932,282.741760 233.955902,278.679413 235.258224,276.277100 
	C236.219925,274.503082 239.563675,273.342133 241.945419,273.151978 
	C247.569763,272.703003 253.253418,273.006439 258.912994,272.985229 
	C261.746521,272.974609 264.669373,272.546570 264.668427,268.999908 
	C264.667480,265.456238 261.723846,265.273254 258.918793,264.959686 
	C253.852829,264.393402 248.404297,264.494141 243.868332,262.555206 
	C236.098892,259.234009 232.705719,252.218369 233.096634,243.880981 
	C233.513824,234.982956 238.498550,229.142380 247.092346,225.835312 
z"/>
</svg>